<svg width="176" height="62" viewBox="0 0 176 62" fill="none" xmlns="http://www.w3.org/2000/svg">
<rect width="176" height="62" fill="white"/>
<path d="M20.8294 25.047H26.7454V26.866H20.8294V25.047ZM20.9994 30.147H27.7144V32H18.7894V20.1H27.4764V21.953H20.9994V30.147ZM41.4321 22.82C42.1574 22.82 42.7977 22.9617 43.3531 23.245C43.9197 23.5283 44.3617 23.9647 44.6791 24.554C44.9964 25.132 45.1551 25.88 45.1551 26.798V32H43.0301V27.07C43.0301 26.2653 42.8544 25.6647 42.5031 25.268C42.1517 24.8713 41.6474 24.673 40.9901 24.673C40.5254 24.673 40.1117 24.775 39.7491 24.979C39.3977 25.183 39.1201 25.4833 38.9161 25.88C38.7234 26.2767 38.6271 26.781 38.6271 27.393V32H36.5021V27.07C36.5021 26.2653 36.3264 25.6647 35.9751 25.268C35.6237 24.8713 35.1194 24.673 34.4621 24.673C33.9974 24.673 33.5837 24.775 33.2211 24.979C32.8697 25.183 32.5921 25.4833 32.3881 25.88C32.1954 26.2767 32.0991 26.781 32.0991 27.393V32H29.9741V22.922H31.9971V25.336L31.6401 24.622C31.9461 24.0327 32.3881 23.585 32.9661 23.279C33.5554 22.973 34.2241 22.82 34.9721 22.82C35.8221 22.82 36.5587 23.0297 37.1821 23.449C37.8167 23.8683 38.2361 24.503 38.4401 25.353L37.6071 25.064C37.9017 24.384 38.3891 23.84 39.0691 23.432C39.7491 23.024 40.5367 22.82 41.4321 22.82ZM59.3286 22.82C60.0539 22.82 60.6942 22.9617 61.2496 23.245C61.8162 23.5283 62.2582 23.9647 62.5756 24.554C62.8929 25.132 63.0516 25.88 63.0516 26.798V32H60.9266V27.07C60.9266 26.2653 60.7509 25.6647 60.3996 25.268C60.0482 24.8713 59.5439 24.673 58.8866 24.673C58.4219 24.673 58.0082 24.775 57.6456 24.979C57.2942 25.183 57.0166 25.4833 56.8126 25.88C56.6199 26.2767 56.5236 26.781 56.5236 27.393V32H54.3986V27.07C54.3986 26.2653 54.2229 25.6647 53.8716 25.268C53.5202 24.8713 53.0159 24.673 52.3586 24.673C51.8939 24.673 51.4802 24.775 51.1176 24.979C50.7662 25.183 50.4886 25.4833 50.2846 25.88C50.0919 26.2767 49.9956 26.781 49.9956 27.393V32H47.8706V22.922H49.8936V25.336L49.5366 24.622C49.8426 24.0327 50.2846 23.585 50.8626 23.279C51.4519 22.973 52.1206 22.82 52.8686 22.82C53.7186 22.82 54.4552 23.0297 55.0786 23.449C55.7132 23.8683 56.1326 24.503 56.3366 25.353L55.5036 25.064C55.7982 24.384 56.2856 23.84 56.9656 23.432C57.6456 23.024 58.4332 22.82 59.3286 22.82ZM71.36 32V30.164L71.241 29.773V26.56C71.241 25.9367 71.054 25.455 70.68 25.115C70.306 24.7637 69.7394 24.588 68.98 24.588C68.47 24.588 67.9657 24.6673 67.467 24.826C66.9797 24.9847 66.566 25.2057 66.226 25.489L65.393 23.942C65.8804 23.568 66.4584 23.2903 67.127 23.109C67.807 22.9163 68.5097 22.82 69.235 22.82C70.5497 22.82 71.564 23.1373 72.278 23.772C73.0034 24.3953 73.366 25.3643 73.366 26.679V32H71.36ZM68.504 32.119C67.824 32.119 67.229 32.0057 66.719 31.779C66.209 31.541 65.8124 31.218 65.529 30.81C65.257 30.3907 65.121 29.9203 65.121 29.399C65.121 28.889 65.24 28.43 65.478 28.022C65.7274 27.614 66.1297 27.291 66.685 27.053C67.2404 26.815 67.977 26.696 68.895 26.696H71.53V28.107H69.048C68.3227 28.107 67.8354 28.226 67.586 28.464C67.3367 28.6907 67.212 28.974 67.212 29.314C67.212 29.6993 67.365 30.0053 67.671 30.232C67.977 30.4587 68.402 30.572 68.946 30.572C69.4674 30.572 69.932 30.453 70.34 30.215C70.7594 29.977 71.0597 29.6257 71.241 29.161L71.598 30.436C71.394 30.9687 71.0257 31.3823 70.493 31.677C69.9717 31.9717 69.3087 32.119 68.504 32.119ZM89.3595 20.1H91.5695V32H89.3595V20.1ZM83.2055 32H80.9955V20.1H83.2055V32ZM89.5295 26.9H83.0185V25.013H89.5295V26.9ZM100.147 32V30.164L100.028 29.773V26.56C100.028 25.9367 99.8412 25.455 99.4672 25.115C99.0932 24.7637 98.5265 24.588 97.7672 24.588C97.2572 24.588 96.7528 24.6673 96.2542 24.826C95.7668 24.9847 95.3532 25.2057 95.0132 25.489L94.1802 23.942C94.6675 23.568 95.2455 23.2903 95.9142 23.109C96.5942 22.9163 97.2968 22.82 98.0222 22.82C99.3368 22.82 100.351 23.1373 101.065 23.772C101.79 24.3953 102.153 25.3643 102.153 26.679V32H100.147ZM97.2912 32.119C96.6112 32.119 96.0162 32.0057 95.5062 31.779C94.9962 31.541 94.5995 31.218 94.3162 30.81C94.0442 30.3907 93.9082 29.9203 93.9082 29.399C93.9082 28.889 94.0272 28.43 94.2652 28.022C94.5145 27.614 94.9168 27.291 95.4722 27.053C96.0275 26.815 96.7642 26.696 97.6822 26.696H100.317V28.107H97.8352C97.1098 28.107 96.6225 28.226 96.3732 28.464C96.1238 28.6907 95.9992 28.974 95.9992 29.314C95.9992 29.6993 96.1522 30.0053 96.4582 30.232C96.7642 30.4587 97.1892 30.572 97.7332 30.572C98.2545 30.572 98.7192 30.453 99.1272 30.215C99.5465 29.977 99.8468 29.6257 100.028 29.161L100.385 30.436C100.181 30.9687 99.8128 31.3823 99.2802 31.677C98.7588 31.9717 98.0958 32.119 97.2912 32.119ZM99.8582 21.494C99.5748 21.494 99.3312 21.4033 99.1272 21.222C98.9345 21.0293 98.8382 20.78 98.8382 20.474C98.8382 20.168 98.9345 19.9187 99.1272 19.726C99.3312 19.5333 99.5748 19.437 99.8582 19.437C100.141 19.437 100.379 19.5333 100.572 19.726C100.776 19.9187 100.878 20.168 100.878 20.474C100.878 20.78 100.776 21.0293 100.572 21.222C100.379 21.4033 100.141 21.494 99.8582 21.494ZM96.5602 21.494C96.2768 21.494 96.0332 21.4033 95.8292 21.222C95.6365 21.0293 95.5402 20.78 95.5402 20.474C95.5402 20.168 95.6365 19.9187 95.8292 19.726C96.0332 19.5333 96.2768 19.437 96.5602 19.437C96.8435 19.437 97.0815 19.5333 97.2742 19.726C97.4782 19.9187 97.5802 20.168 97.5802 20.474C97.5802 20.78 97.4782 21.0293 97.2742 21.222C97.0815 21.4033 96.8435 21.494 96.5602 21.494ZM104.88 32V22.922H106.903V25.421L106.665 24.69C106.937 24.078 107.362 23.6133 107.94 23.296C108.53 22.9787 109.261 22.82 110.133 22.82V24.843C110.043 24.8203 109.958 24.809 109.878 24.809C109.799 24.7977 109.72 24.792 109.64 24.792C108.836 24.792 108.195 25.03 107.719 25.506C107.243 25.9707 107.005 26.6677 107.005 27.597V32H104.88ZM113.67 29.977L113.721 27.308L118.464 22.922H121.014L116.985 26.968L115.863 27.903L113.67 29.977ZM111.936 32V19.386H114.061V32H111.936ZM118.787 32L115.472 27.903L116.815 26.203L121.371 32H118.787ZM126.458 32.119C125.529 32.119 124.702 31.9207 123.976 31.524C123.251 31.116 122.679 30.5607 122.259 29.858C121.84 29.1553 121.63 28.3563 121.63 27.461C121.63 26.5543 121.84 25.7553 122.259 25.064C122.679 24.3613 123.251 23.8117 123.976 23.415C124.702 23.0183 125.529 22.82 126.458 22.82C127.399 22.82 128.232 23.0183 128.957 23.415C129.694 23.8117 130.266 24.3557 130.674 25.047C131.094 25.7383 131.303 26.543 131.303 27.461C131.303 28.3563 131.094 29.1553 130.674 29.858C130.266 30.5607 129.694 31.116 128.957 31.524C128.232 31.9207 127.399 32.119 126.458 32.119ZM126.458 30.3C126.98 30.3 127.444 30.1867 127.852 29.96C128.26 29.7333 128.578 29.4047 128.804 28.974C129.042 28.5433 129.161 28.039 129.161 27.461C129.161 26.8717 129.042 26.3673 128.804 25.948C128.578 25.5173 128.26 25.1887 127.852 24.962C127.444 24.7353 126.985 24.622 126.475 24.622C125.954 24.622 125.489 24.7353 125.081 24.962C124.685 25.1887 124.367 25.5173 124.129 25.948C123.891 26.3673 123.772 26.8717 123.772 27.461C123.772 28.039 123.891 28.5433 124.129 28.974C124.367 29.4047 124.685 29.7333 125.081 29.96C125.489 30.1867 125.948 30.3 126.458 30.3ZM128.09 21.494C127.807 21.494 127.563 21.4033 127.359 21.222C127.167 21.0293 127.07 20.78 127.07 20.474C127.07 20.168 127.167 19.9187 127.359 19.726C127.563 19.5333 127.807 19.437 128.09 19.437C128.374 19.437 128.612 19.5333 128.804 19.726C129.008 19.9187 129.11 20.168 129.11 20.474C129.11 20.78 129.008 21.0293 128.804 21.222C128.612 21.4033 128.374 21.494 128.09 21.494ZM124.792 21.494C124.509 21.494 124.265 21.4033 124.061 21.222C123.869 21.0293 123.772 20.78 123.772 20.474C123.772 20.168 123.869 19.9187 124.061 19.726C124.265 19.5333 124.509 19.437 124.792 19.437C125.076 19.437 125.314 19.5333 125.506 19.726C125.71 19.9187 125.812 20.168 125.812 20.474C125.812 20.78 125.71 21.0293 125.506 21.222C125.314 21.4033 125.076 21.494 124.792 21.494ZM138.486 22.82C139.212 22.82 139.858 22.9617 140.424 23.245C141.002 23.5283 141.456 23.9647 141.784 24.554C142.113 25.132 142.277 25.88 142.277 26.798V32H140.152V27.07C140.152 26.2653 139.96 25.6647 139.574 25.268C139.2 24.8713 138.673 24.673 137.993 24.673C137.495 24.673 137.053 24.775 136.667 24.979C136.282 25.183 135.982 25.489 135.766 25.897C135.562 26.2937 135.46 26.798 135.46 27.41V32H133.335V22.922H135.358V25.37L135.001 24.622C135.319 24.044 135.778 23.602 136.378 23.296C136.99 22.9787 137.693 22.82 138.486 22.82ZM149.257 32.119C148.248 32.119 147.364 31.9207 146.605 31.524C145.857 31.116 145.273 30.5607 144.854 29.858C144.446 29.1553 144.242 28.3563 144.242 27.461C144.242 26.5543 144.44 25.7553 144.837 25.064C145.245 24.3613 145.8 23.8117 146.503 23.415C147.217 23.0183 148.027 22.82 148.934 22.82C149.818 22.82 150.605 23.0127 151.297 23.398C151.988 23.7833 152.532 24.3273 152.929 25.03C153.325 25.7327 153.524 26.56 153.524 27.512C153.524 27.6027 153.518 27.7047 153.507 27.818C153.507 27.9313 153.501 28.039 153.49 28.141H145.925V26.73H152.368L151.535 27.172C151.546 26.6507 151.438 26.1917 151.212 25.795C150.985 25.3983 150.673 25.0867 150.277 24.86C149.891 24.6333 149.444 24.52 148.934 24.52C148.412 24.52 147.953 24.6333 147.557 24.86C147.171 25.0867 146.865 25.404 146.639 25.812C146.423 26.2087 146.316 26.679 146.316 27.223V27.563C146.316 28.107 146.44 28.5887 146.69 29.008C146.939 29.4273 147.29 29.7503 147.744 29.977C148.197 30.2037 148.718 30.317 149.308 30.317C149.818 30.317 150.277 30.2377 150.685 30.079C151.093 29.9203 151.455 29.671 151.773 29.331L152.912 30.64C152.504 31.116 151.988 31.4843 151.365 31.745C150.753 31.9943 150.05 32.119 149.257 32.119ZM160.716 22.82C161.441 22.82 162.087 22.9617 162.654 23.245C163.232 23.5283 163.685 23.9647 164.014 24.554C164.343 25.132 164.507 25.88 164.507 26.798V32H162.382V27.07C162.382 26.2653 162.189 25.6647 161.804 25.268C161.43 24.8713 160.903 24.673 160.223 24.673C159.724 24.673 159.282 24.775 158.897 24.979C158.512 25.183 158.211 25.489 157.996 25.897C157.792 26.2937 157.69 26.798 157.69 27.41V32H155.565V22.922H157.588V25.37L157.231 24.622C157.548 24.044 158.007 23.602 158.608 23.296C159.22 22.9787 159.923 22.82 160.716 22.82Z" fill="black"/>
<path d="M21.2852 45.0172C20.5919 45.0172 20.0452 44.8145 19.6452 44.4092C19.2452 44.0038 19.0452 43.4012 19.0452 42.6012V39.3772H19.4532V42.5852C19.4532 43.2838 19.6132 43.8012 19.9332 44.1372C20.2532 44.4732 20.7065 44.6412 21.2932 44.6412C21.8745 44.6412 22.3252 44.4732 22.6452 44.1372C22.9652 43.8012 23.1252 43.2838 23.1252 42.5852V39.3772H23.5332V42.6012C23.5332 43.4012 23.3332 44.0038 22.9332 44.4092C22.5332 44.8145 21.9839 45.0172 21.2852 45.0172ZM25.4369 44.9772V39.3772H25.8449V44.9772H25.4369ZM26.6363 45.7772L29.2763 38.2412H29.6443L27.0043 45.7772H26.6363ZM32.5508 45.0172C31.8575 45.0172 31.3108 44.8145 30.9108 44.4092C30.5108 44.0038 30.3108 43.4012 30.3108 42.6012V39.3772H30.7188V42.5852C30.7188 43.2838 30.8788 43.8012 31.1988 44.1372C31.5188 44.4732 31.9721 44.6412 32.5588 44.6412C33.1401 44.6412 33.5908 44.4732 33.9108 44.1372C34.2308 43.8012 34.3908 43.2838 34.3908 42.5852V39.3772H34.7988V42.6012C34.7988 43.4012 34.5988 44.0038 34.1988 44.4092C33.7988 44.8145 33.2495 45.0172 32.5508 45.0172ZM35.8084 44.9772L38.0804 41.9292V42.2492L35.9604 39.3772H36.4404L38.3124 41.9052H38.1364L40.0084 39.3772H40.4644L38.3604 42.2172V41.9452L40.6164 44.9772H40.1364L38.1204 42.2732H38.2884L36.2884 44.9772H35.8084ZM43.8119 44.9772V39.3772H46.0279C46.6199 39.3772 47.1399 39.4972 47.5879 39.7372C48.0359 39.9772 48.3826 40.3078 48.6279 40.7292C48.8786 41.1505 49.0039 41.6332 49.0039 42.1772C49.0039 42.7212 48.8786 43.2038 48.6279 43.6252C48.3826 44.0465 48.0359 44.3772 47.5879 44.6172C47.1399 44.8572 46.6199 44.9772 46.0279 44.9772H43.8119ZM44.2199 44.6092H45.9959C46.5239 44.6092 46.9826 44.5052 47.3719 44.2972C47.7613 44.0892 48.0626 43.8038 48.2759 43.4412C48.4893 43.0732 48.5959 42.6518 48.5959 42.1772C48.5959 41.7025 48.4893 41.2838 48.2759 40.9212C48.0626 40.5532 47.7613 40.2652 47.3719 40.0572C46.9826 39.8492 46.5239 39.7452 45.9959 39.7452H44.2199V44.6092ZM51.9893 45.0092C51.568 45.0092 51.1946 44.9185 50.8693 44.7372C50.5493 44.5558 50.296 44.3052 50.1093 43.9852C49.928 43.6652 49.8373 43.2998 49.8373 42.8892C49.8373 42.4732 49.9226 42.1078 50.0933 41.7932C50.2693 41.4732 50.5093 41.2225 50.8133 41.0412C51.1173 40.8598 51.4586 40.7692 51.8373 40.7692C52.216 40.7692 52.5546 40.8572 52.8533 41.0332C53.1573 41.2092 53.3946 41.4572 53.5653 41.7772C53.7413 42.0918 53.8293 42.4572 53.8293 42.8732C53.8293 42.8892 53.8266 42.9078 53.8213 42.9292C53.8213 42.9452 53.8213 42.9638 53.8213 42.9852H50.1333V42.6732H53.6053L53.4453 42.8252C53.4506 42.4998 53.3813 42.2092 53.2373 41.9532C53.0986 41.6918 52.9093 41.4892 52.6693 41.3452C52.4293 41.1958 52.152 41.1212 51.8373 41.1212C51.528 41.1212 51.2506 41.1958 51.0053 41.3452C50.7653 41.4892 50.576 41.6918 50.4373 41.9532C50.2986 42.2092 50.2293 42.5025 50.2293 42.8332V42.9052C50.2293 43.2465 50.304 43.5505 50.4533 43.8172C50.608 44.0785 50.8186 44.2838 51.0853 44.4332C51.352 44.5772 51.656 44.6492 51.9973 44.6492C52.264 44.6492 52.512 44.6012 52.7413 44.5052C52.976 44.4092 53.1733 44.2625 53.3333 44.0652L53.5653 44.3292C53.384 44.5532 53.1546 44.7238 52.8773 44.8412C52.6053 44.9532 52.3093 45.0092 51.9893 45.0092ZM56.1228 45.0092C55.7761 45.0092 55.4508 44.9585 55.1468 44.8572C54.8481 44.7558 54.6161 44.6278 54.4508 44.4732L54.6348 44.1532C54.7948 44.2918 55.0081 44.4118 55.2747 44.5132C55.5414 44.6092 55.8294 44.6572 56.1388 44.6572C56.5761 44.6572 56.8908 44.5852 57.0828 44.4412C57.2748 44.2972 57.3708 44.1078 57.3708 43.8732C57.3708 43.7025 57.3201 43.5692 57.2188 43.4732C57.1228 43.3718 56.9921 43.2945 56.8268 43.2412C56.6614 43.1878 56.4801 43.1452 56.2828 43.1132C56.0854 43.0758 55.8881 43.0358 55.6908 42.9932C55.4934 42.9505 55.3121 42.8892 55.1468 42.8092C54.9814 42.7292 54.8481 42.6198 54.7467 42.4812C54.6508 42.3372 54.6028 42.1478 54.6028 41.9132C54.6028 41.6998 54.6614 41.5078 54.7788 41.3372C54.8961 41.1665 55.0721 41.0305 55.3068 40.9292C55.5414 40.8225 55.8348 40.7692 56.1868 40.7692C56.4481 40.7692 56.7094 40.8065 56.9708 40.8812C57.2374 40.9558 57.4534 41.0545 57.6188 41.1772L57.4348 41.4972C57.2588 41.3638 57.0614 41.2678 56.8428 41.2092C56.6241 41.1505 56.4028 41.1212 56.1788 41.1212C55.7734 41.1212 55.4748 41.1958 55.2828 41.3452C55.0961 41.4945 55.0028 41.6812 55.0028 41.9052C55.0028 42.0812 55.0508 42.2225 55.1468 42.3292C55.2481 42.4305 55.3814 42.5105 55.5468 42.5692C55.7121 42.6225 55.8934 42.6678 56.0908 42.7052C56.2881 42.7372 56.4854 42.7745 56.6828 42.8172C56.8801 42.8598 57.0614 42.9212 57.2268 43.0012C57.3921 43.0758 57.5228 43.1825 57.6188 43.3212C57.7201 43.4545 57.7708 43.6358 57.7708 43.8652C57.7708 44.0945 57.7068 44.2945 57.5788 44.4652C57.4561 44.6358 57.2721 44.7692 57.0268 44.8652C56.7814 44.9612 56.4801 45.0092 56.1228 45.0092ZM58.8871 44.9772V40.8012H59.2871V44.9772H58.8871ZM59.0871 39.7852C58.9964 39.7852 58.9191 39.7532 58.8551 39.6892C58.7911 39.6252 58.7591 39.5505 58.7591 39.4652C58.7591 39.3745 58.7911 39.2972 58.8551 39.2332C58.9191 39.1692 58.9964 39.1372 59.0871 39.1372C59.1831 39.1372 59.2604 39.1692 59.3191 39.2332C59.3831 39.2918 59.4151 39.3665 59.4151 39.4572C59.4151 39.5478 59.3831 39.6252 59.3191 39.6892C59.2604 39.7532 59.1831 39.7852 59.0871 39.7852ZM62.709 46.5612C62.3303 46.5612 61.9703 46.5025 61.629 46.3852C61.2877 46.2678 61.0103 46.1052 60.797 45.8972L61.013 45.5932C61.221 45.7852 61.469 45.9345 61.757 46.0412C62.0503 46.1478 62.365 46.2012 62.701 46.2012C63.261 46.2012 63.6717 46.0705 63.933 45.8092C64.1997 45.5478 64.333 45.1372 64.333 44.5772V43.4172L64.413 42.7932L64.349 42.1692V40.8012H64.733V44.5292C64.733 45.2278 64.5623 45.7398 64.221 46.0652C63.885 46.3958 63.381 46.5612 62.709 46.5612ZM62.597 44.8252C62.2023 44.8252 61.8477 44.7398 61.533 44.5692C61.2237 44.3932 60.9757 44.1532 60.789 43.8492C60.6077 43.5398 60.517 43.1878 60.517 42.7932C60.517 42.3932 60.6077 42.0412 60.789 41.7372C60.9757 41.4332 61.2237 41.1958 61.533 41.0252C61.8477 40.8545 62.2023 40.7692 62.597 40.7692C62.9757 40.7692 63.3143 40.8518 63.613 41.0172C63.917 41.1772 64.157 41.4092 64.333 41.7132C64.509 42.0118 64.597 42.3718 64.597 42.7932C64.597 43.2092 64.509 43.5692 64.333 43.8732C64.157 44.1772 63.917 44.4118 63.613 44.5772C63.3143 44.7425 62.9757 44.8252 62.597 44.8252ZM62.629 44.4652C62.965 44.4652 63.261 44.3958 63.517 44.2572C63.773 44.1132 63.973 43.9158 64.117 43.6652C64.2663 43.4092 64.341 43.1185 64.341 42.7932C64.341 42.4625 64.2663 42.1718 64.117 41.9212C63.973 41.6705 63.773 41.4758 63.517 41.3372C63.261 41.1985 62.965 41.1292 62.629 41.1292C62.3037 41.1292 62.0103 41.1985 61.749 41.3372C61.493 41.4758 61.2903 41.6705 61.141 41.9212C60.997 42.1718 60.925 42.4625 60.925 42.7932C60.925 43.1185 60.997 43.4092 61.141 43.6652C61.2903 43.9158 61.493 44.1132 61.749 44.2572C62.0103 44.3958 62.3037 44.4652 62.629 44.4652ZM68.4661 40.7692C68.8075 40.7692 69.1035 40.8358 69.3541 40.9692C69.6101 41.0972 69.8075 41.2945 69.9461 41.5612C70.0901 41.8225 70.1621 42.1478 70.1621 42.5372V44.9772H69.7621V42.5692C69.7621 42.0998 69.6421 41.7425 69.4021 41.4972C69.1675 41.2518 68.8368 41.1292 68.4101 41.1292C68.0848 41.1292 67.8021 41.1958 67.5621 41.3292C67.3221 41.4625 67.1381 41.6492 67.0101 41.8892C66.8875 42.1292 66.8261 42.4172 66.8261 42.7532V44.9772H66.4261V40.8012H66.8101V41.9612L66.7541 41.8332C66.8821 41.5025 67.0928 41.2438 67.3861 41.0572C67.6795 40.8652 68.0395 40.7692 68.4661 40.7692ZM73.5049 45.0092C73.0836 45.0092 72.7103 44.9185 72.3849 44.7372C72.0649 44.5558 71.8116 44.3052 71.6249 43.9852C71.4436 43.6652 71.3529 43.2998 71.3529 42.8892C71.3529 42.4732 71.4383 42.1078 71.6089 41.7932C71.7849 41.4732 72.0249 41.2225 72.3289 41.0412C72.6329 40.8598 72.9743 40.7692 73.3529 40.7692C73.7316 40.7692 74.0703 40.8572 74.3689 41.0332C74.6729 41.2092 74.9103 41.4572 75.0809 41.7772C75.2569 42.0918 75.3449 42.4572 75.3449 42.8732C75.3449 42.8892 75.3423 42.9078 75.3369 42.9292C75.3369 42.9452 75.3369 42.9638 75.3369 42.9852H71.6489V42.6732H75.1209L74.9609 42.8252C74.9663 42.4998 74.8969 42.2092 74.7529 41.9532C74.6143 41.6918 74.4249 41.4892 74.1849 41.3452C73.9449 41.1958 73.6676 41.1212 73.3529 41.1212C73.0436 41.1212 72.7663 41.1958 72.5209 41.3452C72.2809 41.4892 72.0916 41.6918 71.9529 41.9532C71.8143 42.2092 71.7449 42.5025 71.7449 42.8332V42.9052C71.7449 43.2465 71.8196 43.5505 71.9689 43.8172C72.1236 44.0785 72.3343 44.2838 72.6009 44.4332C72.8676 44.5772 73.1716 44.6492 73.5129 44.6492C73.7796 44.6492 74.0276 44.6012 74.2569 44.5052C74.4916 44.4092 74.6889 44.2625 74.8489 44.0652L75.0809 44.3292C74.8996 44.5532 74.6703 44.7238 74.3929 44.8412C74.1209 44.9532 73.8249 45.0092 73.5049 45.0092ZM76.5824 44.9772V40.8012H76.9664V41.9452L76.9264 41.8172C77.0437 41.4812 77.241 41.2225 77.5184 41.0412C77.7957 40.8598 78.1424 40.7692 78.5584 40.7692V41.1612C78.5424 41.1612 78.5264 41.1612 78.5104 41.1612C78.4944 41.1558 78.4784 41.1532 78.4624 41.1532C77.9984 41.1532 77.6357 41.2998 77.3744 41.5932C77.113 41.8812 76.9824 42.2838 76.9824 42.8012V44.9772H76.5824Z" fill="black"/>
<rect x="10" y="10" width="1" height="42" fill="black"/>
</svg>
